<svg viewBox="0 0 1120 640" role="img" aria-labelledby="schemTitle schemDesc" xmlns="http://www.w3.org/2000/svg">
<title id="schemTitle">PowerOps one-line architecture diagram</title>
<desc id="schemDesc">Field devices connect over Modbus to a control plane built on Express. Telemetry flows into PostgreSQL and is exposed to an LLM agent through an MCP server. The agent writes proposals into an approval queue reviewed by a human operator in a React dashboard. A normally-open approval gate sits between proposals and execution; only approved commands flow back through the control plane to devices. Prometheus and Grafana observe the whole loop.</desc>
<defs>
<marker id="arrB" viewBox="0 0 10 10" refX="9" refY="5" markerWidth="7" markerHeight="7" orient="auto-start-reverse"><path d="M0,0 L10,5 L0,10 z" fill="#4E76E5"/></marker>
<marker id="arrA" viewBox="0 0 10 10" refX="9" refY="5" markerWidth="7" markerHeight="7" orient="auto-start-reverse"><path d="M0,0 L10,5 L0,10 z" fill="#FFB224"/></marker>
<marker id="arrR" viewBox="0 0 10 10" refX="9" refY="5" markerWidth="7" markerHeight="7" orient="auto-start-reverse"><path d="M0,0 L10,5 L0,10 z" fill="#E5484D"/></marker>
</defs>
<style>
.box{fill:#141D27;stroke:#26313D;stroke-width:1.5;rx:10}.box-title{font:600 13px "JetBrains Mono",monospace;fill:#E6EDF3;letter-spacing:.06em}.box-sub{font:400 10.5px "JetBrains Mono",monospace;fill:#93A4B4}.lbl{font:500 10px "JetBrains Mono",monospace;fill:#5C6B7A;letter-spacing:.12em}.flow-lbl{font:500 10px "JetBrains Mono",monospace;letter-spacing:.06em}.w-blue{stroke:#4E76E5;stroke-width:2;fill:none}.w-amber{stroke:#FFB224;stroke-width:2;fill:none;stroke-dasharray:7 6}.w-red{stroke:#E5484D;stroke-width:2.25;fill:none}.w-dot{stroke:#5C6B7A;stroke-width:1.25;fill:none;stroke-dasharray:2 5}
</style>
<rect width="1120" height="640" fill="#10171F"/>
<rect x="822" y="576" width="284" height="50" fill="none" stroke="#26313D" stroke-width="1"/><line x1="822" y1="601" x2="1106" y2="601" stroke="#26313D"/><line x1="964" y1="576" x2="964" y2="626" stroke="#26313D"/><text class="lbl" x="832" y="592">POWEROPS · ONE-LINE DIAGRAM</text><text class="lbl" x="832" y="617">DRAWN: B. OKELEKWE</text><text class="lbl" x="974" y="592">REV A</text><text class="lbl" x="974" y="617">SHEET 1 / 1</text>
<text class="lbl" x="40" y="76">FIELD · NIGERIAN C&amp;I SITES</text>
<rect class="box" x="40" y="92" width="176" height="56" rx="10"/><text class="box-title" x="58" y="116">GENSETS</text><text class="box-sub" x="58" y="134">start/stop · setpoints</text>
<rect class="box" x="40" y="168" width="176" height="56" rx="10"/><text class="box-title" x="58" y="192">INVERTERS</text><text class="box-sub" x="58" y="210">modes · limits</text>
<rect class="box" x="40" y="244" width="176" height="56" rx="10"/><text class="box-title" x="58" y="268">METERS</text><text class="box-sub" x="58" y="286">kW · kWh · V · Hz</text>
<line x1="260" y1="92" x2="260" y2="300" stroke="#93A4B4" stroke-width="3"/><text class="lbl" x="252" y="326" text-anchor="middle">MODBUS</text><line class="w-blue" x1="216" y1="120" x2="258" y2="120"/><line class="w-blue" x1="216" y1="196" x2="258" y2="196"/><line class="w-blue" x1="216" y1="272" x2="258" y2="272"/>
<rect class="box" x="336" y="160" width="220" height="76" rx="10"/><text class="box-title" x="354" y="190">CONTROL PLANE</text><text class="box-sub" x="354" y="208">Express API · Modbus bridge</text><text class="box-sub" x="354" y="224">executes approved commands only</text><path class="w-blue" d="M262,196 H332" marker-end="url(#arrB)"/>
<rect class="box" x="336" y="56" width="220" height="52" rx="10"/><text class="box-title" x="354" y="80">PROMETHEUS → GRAFANA</text><text class="box-sub" x="354" y="97">proposals · approvals · outcomes</text><path class="w-dot" d="M446,160 V108"/><text class="lbl" x="458" y="140">metrics</text>
<rect class="box" x="336" y="392" width="264" height="84" rx="10"/><text class="box-title" x="354" y="422">POSTGRESQL</text><text class="box-sub" x="354" y="440">telemetry · persisted run state</text><text class="box-sub" x="354" y="456">approvals ledger</text><path class="w-blue" d="M446,236 V388" marker-end="url(#arrB)"/><text class="flow-lbl" fill="#4E76E5" x="458" y="316">telemetry</text>
<rect class="box" x="672" y="120" width="184" height="72" rx="10"/><text class="box-title" x="690" y="150">MCP SERVER</text><text class="box-sub" x="690" y="168">read_telemetry</text><text class="box-sub" x="690" y="183">propose_action · run state</text>
<rect class="box" x="912" y="120" width="168" height="72" rx="10"/><text class="box-title" x="930" y="150">LLM AGENT</text><text class="box-sub" x="930" y="168">detect · plan</text><text class="box-sub" x="930" y="183">propose, never dispatch</text>
<path class="w-blue" d="M604,412 H764 V196" marker-end="url(#arrB)"/><text class="flow-lbl" fill="#4E76E5" x="616" y="404">tool reads</text><path class="w-blue" d="M856,156 H908" marker-end="url(#arrB)"/>
<path class="w-amber" d="M996,192 V436 H604" marker-end="url(#arrA)"/><text class="flow-lbl" fill="#FFB224" x="700" y="454">proposed actions (no effect yet)</text>
<rect class="box" x="672" y="500" width="232" height="76" rx="10"/><text class="box-title" x="690" y="530">OPERATOR DASHBOARD</text><text class="box-sub" x="690" y="548">React / Vite · approval queue</text><text class="box-sub" x="690" y="564">site views</text><circle cx="928" cy="524" r="9" fill="none" stroke="#E6EDF3" stroke-width="1.75"/><path d="M913,552 q15,-16 30,0" fill="none" stroke="#E6EDF3" stroke-width="1.75"/><text class="lbl" x="950" y="542">HUMAN</text>
<path class="w-amber" d="M520,476 V538 H668" marker-end="url(#arrA)"/><text class="flow-lbl" fill="#FFB224" x="534" y="530">approval queue</text>
<path class="w-red" d="M672,556 H300 V216 H332" marker-end="url(#arrR)"/><rect x="286" y="356" width="28" height="60" fill="#10171F"/><line x1="300" y1="416" x2="326" y2="374" stroke="#FFB224" stroke-width="2.5" stroke-linecap="round"/><circle cx="300" cy="416" r="3.5" fill="#FFB224"/><circle cx="300" cy="356" r="3.5" fill="#FFB224"/><text class="flow-lbl" fill="#FFB224" x="288" y="380" text-anchor="end">APPROVAL GATE</text><text class="flow-lbl" fill="#5C6B7A" x="288" y="395" text-anchor="end">normally open</text><path class="w-red" d="M336,176 H264" marker-end="url(#arrR)"/><text class="flow-lbl" fill="#E5484D" x="380" y="572">approved command</text>
</svg>